<svg width="40" height="40" viewBox="0 0 40 40" fill="none" xmlns="http://www.w3.org/2000/svg"><path d="M30.8307 7.98438C26.4974 15.5677 18.1474 19.9177 9.4474 19.1344L4.16406 18.651" stroke="white" stroke-width="1.5" stroke-miterlimit="10" stroke-linecap="round" stroke-linejoin="round"></path><path d="M9.16406 32.2835C13.4974 24.7001 21.8474 20.3501 30.5474 21.1335L35.8307 21.6168" stroke="white" stroke-width="1.5" stroke-miterlimit="10" stroke-linecap="round" stroke-linejoin="round"></path><path d="M20.0026 36.6654C29.2074 36.6654 36.6693 29.2034 36.6693 19.9987C36.6693 10.794 29.2074 3.33203 20.0026 3.33203C10.7979 3.33203 3.33594 10.794 3.33594 19.9987C3.33594 29.2034 10.7979 36.6654 20.0026 36.6654Z" stroke="white" stroke-width="1.5" stroke-miterlimit="10" stroke-linecap="round" stroke-linejoin="round"></path><path d="M12.7188 5L18.0188 11.5833C21.5688 15.9833 24.0854 21.1 25.4188 26.5833L27.4354 34.9" stroke="white" stroke-width="1.5" stroke-miterlimit="10" stroke-linecap="round" stroke-linejoin="round"></path></svg>