
<svg width="24" height="25" viewBox="0 0 24 25" fill="none" xmlns="http://www.w3.org/2000/svg">
<g clip-path="url(#clip0_0_2186)">
<path fill-rule="evenodd" clip-rule="evenodd" d="M12.7912 24.0154H1.68936C0.982584 24.0154 0.410004 23.4425 0.410004 22.736V2.1148C0.410004 1.40812 0.982674 0.835449 1.68936 0.835449H22.3107C23.0172 0.835449 23.59 1.40812 23.59 2.1148V22.736C23.59 23.4426 23.0172 24.0154 22.3107 24.0154H16.4039V15.0389H19.4169L19.868 11.5405H16.4039V9.30709C16.4039 8.29424 16.6851 7.60401 18.1375 7.60401L19.99 7.6032V4.47427C19.6696 4.43164 18.57 4.33639 17.2906 4.33639C14.6197 4.33639 12.7912 5.96669 12.7912 8.96062V11.5405H9.77043V15.0389H12.7912V24.0154Z" fill="#4460A0"/>
</g>
<defs>
<clipPath id="clip0_0_2186">
<rect width="23.18" height="23.18" fill="white" transform="translate(0.410004 0.835449)"/>
</clipPath>
</defs>
</svg>
