
<svg width="24" height="24" viewBox="0 0 24 24" fill="none" xmlns="http://www.w3.org/2000/svg">
<g clip-path="url(#clip0_0_2181)">
<path d="M5.13758 14.0092L4.33065 17.0216L1.38136 17.084C0.499949 15.4491 0 13.5787 0 11.5911C0 9.669 0.46744 7.85647 1.29601 6.2605H1.29664L3.92235 6.74188L5.07256 9.35183C4.83182 10.0537 4.70061 10.8071 4.70061 11.5911C4.7007 12.4419 4.85482 13.2571 5.13758 14.0092Z" fill="#FBBB00"/>
<path d="M22.9792 9.42529C23.1123 10.1265 23.1817 10.8506 23.1817 11.5906C23.1817 12.4205 23.0945 13.2299 22.9283 14.0107C22.364 16.6677 20.8897 18.9878 18.8473 20.6296L18.8466 20.629L15.5394 20.4602L15.0714 17.5383C16.4266 16.7435 17.4857 15.4997 18.0436 14.0107H11.8456V9.42529H18.134H22.9792Z" fill="#518EF8"/>
<path d="M18.8462 20.6295L18.8468 20.6301C16.8605 22.2267 14.3372 23.182 11.5904 23.182C7.17632 23.182 3.33859 20.7148 1.38086 17.084L5.13708 14.0093C6.11593 16.6217 8.636 18.4813 11.5904 18.4813C12.8603 18.4813 14.05 18.138 15.0709 17.5388L18.8462 20.6295Z" fill="#28B446"/>
<path d="M18.9892 2.66844L15.2343 5.74257C14.1777 5.08216 12.9288 4.70066 11.5908 4.70066C8.56951 4.70066 6.00231 6.64562 5.0725 9.35169L1.29653 6.26036H1.2959C3.22497 2.54108 7.11109 0 11.5908 0C14.4032 0 16.9818 1.0018 18.9892 2.66844Z" fill="#F14336"/>
</g>
<defs>
<clipPath id="clip0_0_2181">
<rect width="23.1818" height="23.1818" fill="white"/>
</clipPath>
</defs>
</svg>
