<svg width="68" height="60" viewBox="0 0 68 60" fill="none" xmlns="http://www.w3.org/2000/svg"><g opacity="0.2"><path d="M48.8807 34.3435C46.2623 34.5858 44.0337 34.8808 42.137 35.3041C39.0157 36.0007 36.7345 37.0566 35.0755 38.8489C33.4209 40.6365 32.4412 43.097 31.7934 46.484C31.4013 48.5346 31.127 50.9477 30.9044 53.7894C30.6817 50.9478 30.4071 48.535 30.0147 46.4846C29.3664 43.0978 28.3861 40.6378 26.731 38.8505C25.0717 37.0585 22.7903 36.0028 19.6694 35.306C17.7732 34.8826 15.5454 34.5874 12.9283 34.3447C15.5467 34.1023 17.7753 33.8073 19.672 33.384C22.7933 32.6874 25.0745 31.6315 26.7335 29.8392C28.3881 28.0516 29.3679 25.5912 30.0156 22.2041C30.4077 20.1535 30.682 17.7405 30.9046 14.8987C31.1273 17.7403 31.4019 20.1532 31.7944 22.2036C32.4426 25.5903 33.423 28.0503 35.078 29.8377C36.7373 31.6296 39.0187 32.6853 42.1396 33.3821C44.0359 33.8055 46.2636 34.1007 48.8807 34.3435Z" stroke="white"></path><path d="M54.8418 21.4667C54.727 22.0658 54.6298 22.7181 54.5453 23.4283C54.4609 22.7189 54.3639 22.0672 54.2494 21.4687C53.8773 19.5246 53.3092 18.0788 52.328 17.0187C51.3425 15.954 49.9967 15.3388 48.1985 14.9372C47.6081 14.8054 46.9626 14.6953 46.2574 14.6C46.9615 14.5049 47.606 14.3951 48.1957 14.2635C49.9936 13.8623 51.3396 13.2475 52.3255 12.1831C53.3071 11.1234 53.8759 9.67765 54.2485 7.73333C54.3633 7.13424 54.4604 6.4819 54.545 5.77174C54.6294 6.48112 54.7263 7.1328 54.8409 7.73136C55.2129 9.67541 55.7811 11.1213 56.7622 12.1813C57.7477 13.246 59.0936 13.8613 60.8918 14.2628C61.4822 14.3947 62.1277 14.5048 62.8329 14.6C62.1288 14.6951 61.4842 14.805 60.8946 14.9366C59.0967 15.3378 57.7507 15.9526 56.7648 17.017C55.7832 18.0767 55.2144 19.5224 54.8418 21.4667Z" stroke="white"></path><path d="M6.99795 13.7049C7.62228 13.0308 7.97733 12.1259 8.2078 10.9523C8.43826 12.1259 8.79332 13.0308 9.41765 13.7049C10.0564 14.3947 10.9206 14.7825 12.0371 15.0317C12.0597 15.0367 12.0824 15.0417 12.1052 15.0466C12.0824 15.0516 12.0597 15.0566 12.0371 15.0616C10.9206 15.3108 10.0564 15.6986 9.41765 16.3883C8.79332 17.0625 8.43826 17.9674 8.2078 19.141C7.97733 17.9674 7.62228 17.0625 6.99795 16.3883C6.35918 15.6986 5.49496 15.3108 4.37847 15.0616C4.3559 15.0566 4.33321 15.0516 4.31039 15.0466C4.33321 15.0417 4.3559 15.0367 4.37847 15.0317C5.49496 14.7825 6.35918 14.3947 6.99795 13.7049Z" stroke="white"></path></g></svg>